<svg width="20" height="20" xmlns="http://www.w3.org/2000/svg" viewBox="0 0 122.79 122.19"><title>&#x8D44;&#x6E90; 31</title><g fill="#d7000f"><path d="M47.13 115.36c3.72.7 7.55 1.06 11.14 2.18 4.95 1.55 9.47-.41 13.92-1.44a56 56 0 0 0 35-23.95c17.23-25.56 8.69-62.38-18.16-77.59C57.76-3.18 19.5 11.81 8.82 46.19A57.11 57.11 0 0 0 6.74 61c-.31 8.65-.06 17.31 0 26l-1.12.24c-1.37-4.08-3.1-8.09-4-12.27-7.69-34.31 14-67 48.77-73.8 30.52-5.95 61.25 13 69.81 42.87 5.7 19.86 2.18 38.18-10 54.39-9.86 13.15-23.21 21.22-40.05 23.29a72.29 72.29 0 0 1-18.65-.11c-4.98-.75-5.5-1.08-4.37-6.25z"/><path d="M46.78 98.89c20 6.63 37.21.17 47.23-14.77 14.89-22.2 5.16-50.78-20-59.9C55.22 17.4 33.21 27 25.2 46.09a46 46 0 0 0-3.34 15.85c-.49 13.93-.24 27.89-.28 41.83v3.9c-3.79-2.93-6.42-5.4-6.3-10.25.28-11.73-.23-23.48 0-35.21.41-19.94 9.41-34.59 27.71-43 20.23-9.34 45.83-1.38 57.37 17.69 13.08 21.6 7.66 48.23-13.09 62.58-9.25 6.39-19.68 9.18-31 7.49-1.95-.29-4-.25-5.87-.71-4.27-1.07-4.98-2.59-3.62-7.37z"/><path d="M46.62 81.72c2.86 1.28 5.38 2.62 8.13 3.47 9.25 2.87 17.33.25 23.92-6.38s8.8-14.63 6-23.68c-3.17-10.27-11.38-17-21.42-17.73a23.85 23.85 0 0 0-23.86 14.19A26.38 26.38 0 0 0 37.05 62c-.28 17-.2 33.94-.25 50.9v4c-3.43-.57-5.48-1.51-5.51-5.22-.14-16.62-.59-33.23-.71-49.84-.11-13.48 7.2-24.24 19.85-29.09 10.83-4.14 21.13-2.5 30.19 4.66s12.81 17 11.11 28.44C88.71 86.09 69.12 97.31 50 90.11c-4.16-1.56-4.76-2.98-3.38-8.39z"/></g></svg>